<?xml version="1.0" encoding="UTF-8" standalone="no"?>
<!-- Created with Inkscape (http://www.inkscape.org/) -->

<svg
   version="1.0"
   width="453"
   height="453"
   id="svg5532"
   sodipodi:docname="dartboard.svg"
   inkscape:version="1.1.1 (3bf5ae0d25, 2021-09-20)"
   xmlns:inkscape="http://www.inkscape.org/namespaces/inkscape"
   xmlns:sodipodi="http://sodipodi.sourceforge.net/DTD/sodipodi-0.dtd"
   xmlns="http://www.w3.org/2000/svg"
   xmlns:svg="http://www.w3.org/2000/svg">
  <sodipodi:namedview
     id="namedview1060"
     pagecolor="#505050"
     bordercolor="#ffffff"
     borderopacity="1"
     inkscape:pageshadow="0"
     inkscape:pageopacity="0"
     inkscape:pagecheckerboard="1"
     showgrid="false"
     inkscape:zoom="1.8122538"
     inkscape:cx="350.39242"
     inkscape:cy="147.60626"
     inkscape:window-width="3440"
     inkscape:window-height="1376"
     inkscape:window-x="0"
     inkscape:window-y="27"
     inkscape:window-maximized="1"
     inkscape:current-layer="svg5532" />
  <defs
     id="defs5534">
    <marker
       refX="0"
       refY="0"
       orient="auto"
       id="Arrow2Send"
       style="overflow:visible">
      <path
         d="M 8.7185878,4.0337352 L -2.2072895,0.016013256 L 8.7185884,-4.0017078 C 6.97309,-1.6296469 6.9831476,1.6157441 8.7185878,4.0337352 z"
         transform="matrix(-0.3,0,0,-0.3,1.5,0)"
         id="path9898"
         style="font-size:12px;fill:#62adff;fill-opacity:1;fill-rule:evenodd;stroke-width:0.625;stroke-linejoin:round" />
    </marker>
  </defs>
  <g
     transform="translate(-9.31263,-200.1479)"
     id="layer1">
    <g
       transform="translate(235.81263,426.6479)"
       id="Board">
      <g
         id="BaseBoard">
        <path
           d="M 226.5,0 A 226.5,226.5 0 1 1 -226.5,2.7737334e-14 A 226.5,226.5 0 1 1 226.5,-5.5474668e-14 z"
           id="path1307"
           style="opacity:1;fill:#000000;fill-opacity:1;fill-rule:evenodd;stroke:none;stroke-width:1.10000002;stroke-linecap:butt;stroke-linejoin:miter;stroke-miterlimit:4;stroke-dasharray:none;stroke-dashoffset:0;stroke-opacity:1" />
      </g>
      <g
         id="Inside Spider"
         style="stroke:#d0edfd;stroke-width:1.10000002;stroke-miterlimit:4;stroke-dasharray:none;stroke-opacity:1">
        <path
           d="M 170.55,0 A 170.55,170.55 0 1 1 -170.55,2.0885662e-14 A 170.55,170.55 0 1 1 170.55,-4.1771323e-14 z"
           id="DoubleRed"
           style="opacity:1;fill:#ff0000;fill-opacity:1;fill-rule:evenodd" />
        <path
           d="M 146.91298,0 A 146.91298,146.91298 0 1 1 -146.91298,0 146.91298,146.91298 0 1 1 146.91298,0 Z"
           id="path2195"
           style="opacity:1;fill:#000000;fill-opacity:1;fill-rule:evenodd;stroke-width:1.00096" />
        <path
           d="M 107.55,0 A 107.55,107.55 0 1 1 -107.55,1.3170642e-14 A 107.55,107.55 0 1 1 107.55,-2.6341283e-14 z"
           id="TrebleRed"
           style="opacity:1;fill:#ff0000;fill-opacity:1;fill-rule:evenodd" />
        <path
           d="M 85.734511,0 A 85.734511,85.734511 0 1 1 -85.734511,0 85.734511,85.734511 0 1 1 85.734511,0 Z"
           id="path2197"
           style="opacity:1;fill:#000000;fill-opacity:1;fill-rule:evenodd;stroke-width:0.957928" />
        <g
           id="GreenDoubleSpiders"
           style="opacity:1;fill:#00a000;fill-opacity:1;fill-rule:evenodd">
          <path
             d="M 170.55,0 A 170.55,170.55 0 0 1 162.20269,52.70285 L 0,0 z"
             transform="matrix(-0.45399,-0.891007,0.891007,-0.45399,0,0)"
             id="path4826"
             style="fill:#00a000;fill-opacity:1" />
          <path
             d="M 170.55,0 A 170.55,170.55 0 0 1 162.20269,52.70285 L 0,0 z"
             transform="matrix(-0.891006,-0.453991,0.453991,-0.891006,0,0)"
             id="path4830"
             style="fill:#00a000;fill-opacity:1" />
          <path
             d="M 170.55,0 A 170.55,170.55 0 0 1 162.20269,52.70285 L 0,0 z"
             transform="matrix(-0.987688,0.156434,-0.156434,-0.987688,0,0)"
             id="path4832"
             style="fill:#00a000;fill-opacity:1" />
          <path
             d="M 170.55,0 A 170.55,170.55 0 0 1 162.20269,52.70285 L 0,0 z"
             transform="matrix(-0.707107,0.707106,-0.707106,-0.707107,0,0)"
             id="path4834"
             style="fill:#00a000;fill-opacity:1" />
          <path
             d="M 170.55,0 A 170.55,170.55 0 0 1 162.20269,52.70285 L 0,0 z"
             transform="matrix(-0.156435,0.987688,-0.987688,-0.156435,0,0)"
             id="path4836"
             style="fill:#00a000;fill-opacity:1" />
          <path
             d="M 170.55,0 A 170.55,170.55 0 0 1 162.20269,52.70285 L 0,0 z"
             transform="matrix(0.45399,0.891007,-0.891007,0.45399,0,0)"
             id="path4838"
             style="fill:#00a000;fill-opacity:1" />
          <path
             d="M 170.55,0 A 170.55,170.55 0 0 1 162.20269,52.70285 L 0,0 z"
             transform="matrix(0.891006,0.453991,-0.453991,0.891006,0,0)"
             id="path4840"
             style="fill:#00a000;fill-opacity:1" />
          <path
             d="M 170.55,0 A 170.55,170.55 0 0 1 162.20269,52.70285 L 0,0 z"
             transform="matrix(0.987688,-0.156434,0.156434,0.987688,0,0)"
             id="path4842"
             style="fill:#00a000;fill-opacity:1" />
          <path
             d="M 170.55,0 A 170.55,170.55 0 0 1 162.20269,52.70285 L 0,0 z"
             transform="matrix(0.707107,-0.707106,0.707106,0.707107,0,0)"
             id="path4844"
             style="fill:#00a000;fill-opacity:1" />
          <path
             d="M 170.55,0 A 170.55,170.55 0 0 1 162.20269,52.70285 L 0,0 z"
             transform="matrix(0.156435,-0.987688,0.987688,0.156435,0,0)"
             id="path4846"
             style="fill:#00a000;fill-opacity:1" />
        </g>
        <g
           id="g4876"
           style="opacity:1;fill:#e7e4c7;fill-opacity:1;fill-rule:evenodd">
          <path
             d="m -66.614831,-130.81306 a 146.84024,146.84024 0 0 1 43.693212,-14.19675 L 0.04915736,0.02259513 Z"
             id="path4878"
             style="stroke-width:1.00046" />
          <path
             d="m -130.83239,-66.636197 a 146.87608,146.87608 0 0 1 27.0105,-37.176703 L 0.03510631,0.04423649 Z"
             id="path4880"
             style="stroke-width:1.0007" />
          <path
             d="m -145.08371,22.980164 a 146.90004,146.90004 3.5625082 0 1 2e-5,-45.960459 L 0.00775386,-5.8949186e-6 Z"
             id="path4882"
             style="stroke-width:1.00087" />
          <path
             d="M -103.71911,103.70974 A 146.731,146.731 84.345034 0 1 -130.70287,66.569709 L 0.03545567,-0.04467679 Z"
             id="path4884"
             style="stroke-width:0.999716" />
          <path
             d="M -22.935899,145.09705 A 146.92846,146.92846 3.5625082 0 1 -66.65534,130.89171 L 0.04886028,-0.02245864 Z"
             id="path4886"
             style="stroke-width:1.00106" />
          <path
             d="m 66.541322,130.66961 a 146.67951,146.67951 84.345034 0 1 -43.645387,14.1812 L -0.04969816,-0.02284371 Z"
             id="path4888"
             style="stroke-width:0.999365" />
          <path
             d="M 130.75061,66.594361 A 146.78454,146.78454 0 0 1 103.75694,103.7479 L -0.03532682,-0.04451434 Z"
             id="path4890"
             style="stroke-width:1.00008" />
          <path
             d="m 145.10415,-22.982174 a 146.91288,146.91288 0 0 1 -2e-5,45.964478 L 0,5.8734336e-6 Z"
             id="path4892"
             style="stroke-width:1.00095" />
          <path
             d="m 103.76307,-103.75374 a 146.79296,146.79296 0 0 1 26.99515,37.155715 L -0.03530643,0.04448874 Z"
             id="path4894"
             style="stroke-width:1.00014" />
          <path
             d="m 22.897236,-144.85771 a 146.68651,146.68651 0 0 1 43.647449,14.18195 L -0.04967436,0.02283283 Z"
             id="path4896"
             style="stroke-width:0.999413" />
        </g>
        <g
           id="GreenTrebleSpiders"
           style="opacity:1;fill:#00a000;fill-opacity:1;fill-rule:evenodd">
          <path
             d="M 107.55,0 A 107.55,107.55 0 0 1 102.28613,33.234779 L 0,0 z"
             transform="matrix(-0.45399,-0.891007,0.891007,-0.45399,0,0)"
             id="path4856" />
          <path
             d="M 107.55,0 A 107.55,107.55 0 0 1 102.28613,33.234779 L 0,0 z"
             transform="matrix(-0.891006,-0.453991,0.453991,-0.891006,0,0)"
             id="path4858" />
          <path
             d="M 107.55,0 A 107.55,107.55 0 0 1 102.28613,33.234779 L 0,0 z"
             transform="matrix(-0.987688,0.156434,-0.156434,-0.987688,0,0)"
             id="path4860" />
          <path
             d="M 107.55,0 A 107.55,107.55 0 0 1 102.28613,33.234779 L 0,0 z"
             transform="matrix(-0.707107,0.707106,-0.707106,-0.707107,0,0)"
             id="path4862" />
          <path
             d="M 107.55,0 A 107.55,107.55 0 0 1 102.28613,33.234779 L 0,0 z"
             transform="matrix(-0.156435,0.987688,-0.987688,-0.156435,0,0)"
             id="path4864" />
          <path
             d="M 107.55,0 A 107.55,107.55 0 0 1 102.28613,33.234779 L 0,0 z"
             transform="matrix(0.45399,0.891007,-0.891007,0.45399,0,0)"
             id="path4866" />
          <path
             d="M 107.55,0 A 107.55,107.55 0 0 1 102.28613,33.234779 L 0,0 z"
             transform="matrix(0.891006,0.453991,-0.453991,0.891006,0,0)"
             id="path4868" />
          <path
             d="M 107.55,0 A 107.55,107.55 0 0 1 102.28613,33.234779 L 0,0 z"
             transform="matrix(0.987688,-0.156434,0.156434,0.987688,0,0)"
             id="path4870" />
          <path
             d="M 107.55,0 A 107.55,107.55 0 0 1 102.28613,33.234779 L 0,0 z"
             id="path4872"
             transform="matrix(0.707107,-0.707106,0.707106,0.707107,0,0)" />
          <path
             d="M 107.55,0 A 107.55,107.55 0 0 1 102.28613,33.234779 L 0,0 z"
             transform="matrix(0.156435,-0.987688,0.987688,0.156435,0,0)"
             id="path4874" />
        </g>
        <g
           id="g5771"
           style="opacity:1;fill:#e7e4c7;fill-opacity:1;fill-rule:evenodd">
          <path
             d="m -38.833913,-76.321755 a 85.694189,85.694189 0 0 1 25.498829,-8.285053 L 0.07038427,0.03235206 Z"
             id="path5773"
             style="fill:#e7e4c7;fill-opacity:1;stroke-width:0.957477" />
          <path
             d="m -76.229063,-38.802647 a 85.610831,85.610831 82.981878 0 1 15.743825,-21.669485 L 0.05071872,0.06390925 Z"
             id="path5775"
             style="fill:#e7e4c7;fill-opacity:1;stroke-width:0.956546" />
          <path
             d="m -84.815746,13.435193 a 85.884098,85.884098 88.977296 0 1 1.1e-5,-26.870466 L 0.01098178,-5.1174552e-6 Z"
             id="path5777"
             style="fill:#e7e4c7;fill-opacity:1;stroke-width:0.959599" />
          <path
             d="M -60.542317,60.529123 A 85.690985,85.690985 0 0 1 -76.300853,38.839328 L 0.05040196,-0.06351024 Z"
             id="path5779"
             style="fill:#e7e4c7;fill-opacity:1;stroke-width:0.957441" />
          <path
             d="M -13.335505,84.608722 A 85.696138,85.696138 1.7881672 0 1 -38.834904,76.323448 L 0.07037326,-0.03234708 Z"
             id="path5781"
             style="fill:#e7e4c7;fill-opacity:1;stroke-width:0.957499" />
          <path
             d="M 38.823169,76.300864 A 85.670808,85.670808 0 0 1 13.331297,84.583656 L -0.07051328,-0.03241135 Z"
             id="path5783"
             style="fill:#e7e4c7;fill-opacity:1;stroke-width:0.957216" />
          <path
             d="M 76.275705,38.826567 A 85.662947,85.662947 28.154966 0 1 60.522296,60.509243 L -0.05051285,-0.06364984 Z"
             id="path5785"
             style="fill:#e7e4c7;fill-opacity:1;stroke-width:0.957128" />
          <path
             d="m 84.274967,-13.349618 a 85.337062,85.337062 0 0 1 -1.1e-5,26.699316 L -0.01145986,5.3402359e-6 Z"
             id="path5787"
             style="fill:#e7e4c7;fill-opacity:1;stroke-width:0.953487" />
          <path
             d="m 60.4633,-60.449992 a 85.579859,85.579859 22.5 0 1 15.738099,21.661667 L -0.05084094,0.06406339 Z"
             id="path5789"
             style="fill:#e7e4c7;fill-opacity:1;stroke-width:0.9562" />
          <path
             d="m 13.276586,-84.248473 a 85.332333,85.332333 0 0 1 25.391147,8.2501 L -0.07238066,0.03326978 Z"
             id="path5791"
             style="fill:#e7e4c7;fill-opacity:1;stroke-width:0.953434" />
        </g>
        <path
           d="M 16.450001,0 A 16.450001,16.450001 0 1 1 -16.450001,2.0144775e-15 A 16.450001,16.450001 0 1 1 16.450001,-4.0289551e-15 z"
           id="path5939"
           style="opacity:1;fill:#00a000;fill-opacity:1;fill-rule:evenodd" />
        <path
           d="M 6.9000001,0 A 6.9000001,6.9000001 0 1 1 -6.9000001,8.449784e-16 A 6.9000001,6.9000001 0 1 1 6.9000001,-1.6899568e-15 z"
           id="path5944"
           style="opacity:1;fill:#ff0000;fill-opacity:1;fill-rule:evenodd" />
      </g>
      <g
         id="BoardNumbers"
         style="font-size:28px;font-style:normal;font-variant:normal;font-weight:normal;font-stretch:normal;text-align:start;line-height:100%;writing-mode:lr-tb;text-anchor:start;fill:#ffffff;fill-opacity:1;font-family:Sans">
        <text
           x="-16.95171"
           y="-187.82498"
           id="text6007"
           xml:space="preserve"><tspan
             x="-16.95171"
             y="-187.82498"
             id="tspan6009">20</tspan></text>
        <text
           x="51.872234"
           y="-180.36624"
           id="text6895"
           xml:space="preserve"><tspan
             x="51.872234"
             y="-180.36624"
             id="tspan6897">1</tspan></text>
        <text
           x="100.0151"
           y="-150.53122"
           id="text6903"
           xml:space="preserve"><tspan
             x="100.0151"
             y="-150.53122"
             id="tspan6907">18</tspan></text>
        <text
           x="153.24347"
           y="-103.74449"
           id="text6911"
           xml:space="preserve"><tspan
             x="153.24347"
             y="-103.74449"
             id="tspan6913">4</tspan></text>
        <text
           x="173.92455"
           y="-45.769642"
           id="text6915"
           xml:space="preserve"><tspan
             x="173.92455"
             y="-45.769642"
             id="tspan6917">13</tspan></text>
        <text
           x="187.14688"
           y="9.1538963"
           id="text6966"
           xml:space="preserve"><tspan
             x="187.14688"
             y="9.1538963"
             id="tspan6968">6</tspan><tspan
             x="187.14688"
             y="37.153896"
             id="tspan6970" /></text>
        <text
           x="171.5513"
           y="67.467781"
           id="text6923"
           xml:space="preserve"><tspan
             x="171.5513"
             y="67.467781"
             id="tspan6925">10</tspan></text>
        <text
           x="142.7334"
           y="127.13781"
           id="text6927"
           xml:space="preserve"><tspan
             x="142.7334"
             y="127.13781"
             id="tspan6929">15</tspan></text>
        <text
           x="106.11771"
           y="169.85611"
           id="text6931"
           xml:space="preserve"><tspan
             x="106.11771"
             y="169.85611"
             id="tspan6933">2</tspan></text>
        <text
           x="42.718311"
           y="196.63982"
           id="text6975"
           xml:space="preserve"><tspan
             x="42.718311"
             y="196.63982"
             id="tspan6977">17</tspan></text>
        <text
           x="-6.1026163"
           y="208.16699"
           id="text6979"
           xml:space="preserve"><tspan
             x="-6.1026163"
             y="208.16699"
             id="tspan6981">3</tspan></text>
        <text
           x="-74.248497"
           y="199.01306"
           id="text6983"
           xml:space="preserve"><tspan
             x="-74.248497"
             y="199.01306"
             id="tspan6985">19</tspan></text>
        <text
           x="-123.74748"
           y="173.24644"
           id="text6987"
           xml:space="preserve"><tspan
             x="-123.74748"
             y="173.24644"
             id="tspan6989">7</tspan></text>
        <text
           x="-174.94165"
           y="127.13781"
           id="text6991"
           xml:space="preserve"><tspan
             x="-174.94165"
             y="127.13781"
             id="tspan6993">16</tspan></text>
        <text
           x="-193.58855"
           y="72.892326"
           id="text6995"
           xml:space="preserve"><tspan
             x="-193.58855"
             y="72.892326"
             id="tspan6997">8</tspan></text>
        <text
           x="-214.60867"
           y="8.8148642"
           id="text7011"
           xml:space="preserve"><tspan
             x="-214.60867"
             y="8.8148642"
             id="tspan7013">11</tspan></text>
        <text
           x="-208.50606"
           y="-48.820953"
           id="text7015"
           xml:space="preserve"><tspan
             x="-208.50606"
             y="-48.820953"
             id="tspan7017">14</tspan></text>
        <text
           x="-165.10965"
           y="-109.50809"
           id="text7019"
           xml:space="preserve"><tspan
             x="-165.10965"
             y="-109.50809"
             id="tspan7021">9</tspan></text>
        <text
           x="-134.25755"
           y="-152.22639"
           id="text7023"
           xml:space="preserve"><tspan
             x="-134.25755"
             y="-152.22639"
             id="tspan7025">12</tspan></text>
        <text
           x="-67.467812"
           y="-178.67107"
           id="text7027"
           xml:space="preserve"><tspan
             x="-67.467812"
             y="-178.67107"
             id="tspan7029">5</tspan></text>
      </g>
    </g>
  </g>
</svg>
